<svg id="Layer_1" data-name="Layer 1" xmlns="http://www.w3.org/2000/svg" viewBox="0 0 60 60"><defs><style>.cls-1{fill:#FEB823;}</style></defs><path class="cls-1" d="M27.85,58.45a34.3,34.3,0,0,1-5.15-.93A28.08,28.08,0,0,1,5.34,43.84,27.3,27.3,0,0,1,1.88,28.27,27.52,27.52,0,0,1,8.81,11.54a28.05,28.05,0,0,1,14.13-8.8A29.11,29.11,0,0,1,33.29,2a2.84,2.84,0,0,1,.49.1,1.13,1.13,0,0,1,.83,1.26,1.08,1.08,0,0,1-1.08,1c-.67,0-1.35-.1-2-.12C20.4,4,12.23,8.82,6.94,18.51A23.46,23.46,0,0,0,4.21,28.78a25.31,25.31,0,0,0,6.23,18.29,25.06,25.06,0,0,0,16,8.81,25.19,25.19,0,0,0,20.61-6,25,25,0,0,0,8.86-16.07,25.52,25.52,0,0,0-4.33-18.47c-.09-.14-.19-.26-.35-.47,0,.41-.05.73-.11,1a1.13,1.13,0,0,1-1.26,1,1.11,1.11,0,0,1-1-1.16q0-2.07,0-4.14A1.1,1.1,0,0,1,50,10.46c1.37,0,2.73,0,4.09,0a1.14,1.14,0,1,1,0,2.28H52.67a.41.41,0,0,0,.15.39,28,28,0,0,1,5.56,14.45,2.68,2.68,0,0,0,.07.27v4.64a2,2,0,0,0-.07.26A26.75,26.75,0,0,1,55,43.81,28.07,28.07,0,0,1,37.31,57.6a34.25,34.25,0,0,1-4.82.85Z"/><path class="cls-1" d="M30.18,48.91a18.79,18.79,0,0,0,3.3-37.29A18.42,18.42,0,0,0,20.61,14a6.55,6.55,0,0,1-.58.32,1.14,1.14,0,0,1-1.52-.48,1.1,1.1,0,0,1,.38-1.5,16.2,16.2,0,0,1,3.28-1.7,21,21,0,0,1,23.5,5.21,20.16,20.16,0,0,1,5.52,12.37,20.62,20.62,0,0,1-6.56,17.4,20,20,0,0,1-12.49,5.62,20.58,20.58,0,0,1-17.36-6.54A20.38,20.38,0,0,1,9.13,32.22a20.86,20.86,0,0,1,3-13.1,1.43,1.43,0,0,1,.85-.75,1.09,1.09,0,0,1,1.18.4,1.11,1.11,0,0,1,.1,1.3c-.33.64-.71,1.25-1,1.89a19,19,0,0,0,3,20.86A18.74,18.74,0,0,0,28.42,48.9h1.76Z"/><path class="cls-1" d="M26.28,30.2a3.88,3.88,0,0,1,.29-1.4.61.61,0,0,0-.18-.78c-1.11-1.09-2.22-2.2-3.31-3.31a1.16,1.16,0,0,1,1-2,1.56,1.56,0,0,1,.73.48c1,1.05,2.11,2.1,3.16,3.16a.63.63,0,0,0,.81.19,3.36,3.36,0,0,1,2.64,0,.72.72,0,0,0,.91-.22c2.24-2.26,4.5-4.51,6.75-6.76a4.27,4.27,0,0,1,.44-.41,1.1,1.1,0,0,1,1.54.08,1.11,1.11,0,0,1,.07,1.55c-.13.16-.28.29-.42.44-2.2,2.2-4.39,4.4-6.61,6.59a1,1,0,0,0-.31,1.23,3.57,3.57,0,0,1-1.12,4,3.64,3.64,0,0,1-4.16.61A3.83,3.83,0,0,1,26.28,30.2Zm3.9-1.55a1.52,1.52,0,1,0,1.5,1.52A1.51,1.51,0,0,0,30.18,28.65Z"/><path class="cls-1" d="M31.3,45.23c0,.23,0,.47,0,.71A1.15,1.15,0,0,1,30.19,47a1.13,1.13,0,0,1-1.17-1,4.85,4.85,0,0,1,0-1.7,1.1,1.1,0,0,1,1.23-1,1.12,1.12,0,0,1,1.06,1.12c0,.24,0,.48,0,.72Z"/><path class="cls-1" d="M29,15.1c0-.26,0-.52,0-.77a1.14,1.14,0,0,1,1.11-1,1.12,1.12,0,0,1,1.15.9,4.48,4.48,0,0,1,0,1.86A1.15,1.15,0,0,1,29,15.92,7.48,7.48,0,0,1,29,15.1Z"/><path class="cls-1" d="M15.12,31.3a6.43,6.43,0,0,1-.76,0,1.14,1.14,0,0,1-1.06-1.08A1.13,1.13,0,0,1,14.23,29,4.68,4.68,0,0,1,16,29a1.15,1.15,0,0,1-.14,2.28Z"/><path class="cls-1" d="M45.21,29a5.73,5.73,0,0,1,.83,0,1.15,1.15,0,0,1,.1,2.25,4.8,4.8,0,0,1-1.85,0,1.15,1.15,0,0,1,.1-2.26,7.48,7.48,0,0,1,.82,0Z"/><path class="cls-1" d="M37.83,2.94A1.12,1.12,0,0,1,39,4.1a1.15,1.15,0,1,1-1.13-1.16Z"/><path class="cls-1" d="M16,14.89A1.14,1.14,0,1,1,14.89,16,1.11,1.11,0,0,1,16,14.89Z"/></svg>