<svg id="Layer_1" data-name="Layer 1" xmlns="http://www.w3.org/2000/svg" viewBox="0 0 36.3 56.26"><defs><style>.cls-1{fill:#FE2341;}</style></defs><path class="cls-1" d="M8.9,22.58v-.76q0-6.66,0-13.32a3.9,3.9,0,0,1,3.48-4,3.81,3.81,0,0,1,2.15.35c.57.26.57.26.59-.37a4,4,0,0,1,5.94-3.38,3.68,3.68,0,0,1,1.76,2.13c.12.34.23.38.56.21a3.94,3.94,0,0,1,5.92,3.5c0,.3-.06.58.43.35A4,4,0,0,1,35.59,11c0,1.15,0,2.3,0,3.45,0,7.49,0,15,0,22.47a18.46,18.46,0,0,1-2,9.26,16.81,16.81,0,0,1-13,9A17.2,17.2,0,0,1,1.41,41.55a18.42,18.42,0,0,1-.36-3.7c0-5,0-10,0-15a2.73,2.73,0,0,1,1-2.34,3.19,3.19,0,0,1,2.65-.38A7.21,7.21,0,0,1,8.9,22.58Zm25,2.28V14.24c0-1.16,0-2.33,0-3.5A2.27,2.27,0,0,0,31,8.56a2.33,2.33,0,0,0-1.64,2.37V24c0,.19,0,.38,0,.57s-.05.32-.23.34a2.19,2.19,0,0,1-1.27-.06c-.3-.17-.14-.59-.14-.9q0-8.35,0-16.71a2.78,2.78,0,0,0-.43-1.66,2.29,2.29,0,0,0-2.55-.88A2.18,2.18,0,0,0,23.1,6.83q0,7.76,0,15.52v.57c0,.28-.14.41-.42.41h-.5c-.82,0-.83,0-.83-.81V8c0-1.18,0-2.37,0-3.56a2.18,2.18,0,0,0-1.49-2.05A2.29,2.29,0,0,0,17.35,3a2.59,2.59,0,0,0-.51,1.8q0,10.31,0,20.61c0,1,0,1-1.07,1h-.11c-.41,0-.6-.15-.56-.57,0-.18,0-.37,0-.56V8.4A2.21,2.21,0,0,0,13.2,6.17a2.24,2.24,0,0,0-2.56,1.7,3.36,3.36,0,0,0-.08.89V26c0,1.77,0,3.54,0,5.31,0,.45-.14.67-.61.63a1.34,1.34,0,0,0-.4,0c-.53.06-.68-.19-.67-.69,0-1.26,0-2.52,0-3.78A5.43,5.43,0,0,0,4.18,21.8c-.92-.15-1.44-.1-1.43,1.16,0,5,0,10,0,15A16.82,16.82,0,0,0,3,40.67a15.55,15.55,0,0,0,30.89-2.49C33.89,33.74,33.87,29.3,33.87,24.86Z"/></svg>