<svg id="Layer_1" data-name="Layer 1" xmlns="http://www.w3.org/2000/svg" viewBox="0 0 60 60"><defs><style>.cls-1{fill:#0f91e1;}.cls-2{fill:none;stroke:#fff;}.cls-3{fill:#fff;}</style></defs><circle class="cls-1" cx="30" cy="30" r="29.03"/><path id="Path_1740" data-name="Path 1740" class="cls-2" d="M23.85,47.81l10.2-7.65h8.76a2.57,2.57,0,0,0,2.54-2.56v-18a2.55,2.55,0,0,0-2.56-2.56H17.21a2.56,2.56,0,0,0-2.56,2.56v18a2.56,2.56,0,0,0,2.56,2.56h5.27v7a.85.85,0,0,0,.85.85.87.87,0,0,0,.51-.17Z"/><circle id="Ellipse_51" data-name="Ellipse 51" class="cls-3" cx="23.18" cy="29.02" r="2.56"/><circle id="Ellipse_53" data-name="Ellipse 53" class="cls-3" cx="30" cy="29.02" r="2.56"/><circle id="Ellipse_55" data-name="Ellipse 55" class="cls-3" cx="36.83" cy="29.02" r="2.56"/></svg>