<svg xmlns="http://www.w3.org/2000/svg" width="23.067" height="30.756" viewBox="0 0 23.067 30.756">
  <path id="padlock" d="M23.184,11.534h-.961V7.689a7.689,7.689,0,1,0-15.378,0v3.845H5.883A2.887,2.887,0,0,0,3,14.417V27.873a2.887,2.887,0,0,0,2.883,2.883h17.3a2.887,2.887,0,0,0,2.883-2.883V14.417A2.887,2.887,0,0,0,23.184,11.534ZM9.408,7.689a5.126,5.126,0,1,1,10.252,0v3.845H9.408Zm6.408,13.74v2.919a1.282,1.282,0,0,1-2.563,0V21.429a2.563,2.563,0,1,1,2.563,0Z" transform="translate(-3)" fill="#969696"/>
</svg>
