<?xml version="1.0" encoding="UTF-8"?>
<svg id="Layer_1" data-name="Layer 1" xmlns="http://www.w3.org/2000/svg" viewBox="0 0 55.86 60">
  <defs>
    <style>
      .cls-1 {
        fill: #76bbf4;
      }
    </style>
  </defs>
  <path class="cls-1" d="m1.26,33.2c.35-10.01,4.58-17.82,13.19-23.14,1.47-.91,2.92-.72,4.05.46,1.27,1.33,1.18,3.03-.25,4.21-.45.37-.96.66-1.43,1-5.09,3.63-8.36,8.46-9.23,14.69-1.41,10.01,4.5,19.76,14.49,22.61,8.09,2.31,15.3.46,21.22-5.61,3.28-3.35,5.09-7.48,5.47-12.16.69-8.67-3-15.18-10.01-20.01-.42-.29-.85-.56-1.17-.97-1.39-1.77-.43-4.24,1.8-4.59.86-.13,1.72-.08,2.5.4,7.2,4.43,11.56,10.81,12.81,19.17,1.2,8.08-.89,15.33-6.21,21.54-4.47,5.21-10.19,8.22-17.02,9.05-7.02.85-13.46-.77-19.17-4.94-6.01-4.39-9.56-10.35-10.71-17.72-.2-1.31-.31-2.63-.31-3.98Z"/>
  <path class="cls-1" d="m25.06,13.81c0-3.28,0-6.56,0-9.83,0-.54.04-1.07.19-1.59.38-1.27,1.62-2.11,2.99-2.04,1.53.07,2.63.96,2.87,2.36.08.43.11.88.11,1.32,0,6.56,0,13.11,0,19.67,0,.37-.02.74-.08,1.11-.28,1.59-1.41,2.52-3.02,2.51-1.58-.01-2.69-.94-2.97-2.49-.06-.36-.09-.74-.09-1.11,0-3.3,0-6.6,0-9.9Z"/>
</svg>