<svg xmlns="http://www.w3.org/2000/svg" width="23.067" height="23.066" viewBox="0 0 23.067 23.066">
  <path id="Path_25" data-name="Path 25" d="M11.534,0A11.533,11.533,0,1,0,23.067,11.534,11.534,11.534,0,0,0,11.534,0Zm0,3.449A3.815,3.815,0,1,1,7.719,7.264,3.815,3.815,0,0,1,11.534,3.45Zm0,16.6a8.464,8.464,0,0,1-5.512-2.033,1.626,1.626,0,0,1-.57-1.236,3.847,3.847,0,0,1,3.866-3.846h4.439a3.842,3.842,0,0,1,3.86,3.846,1.622,1.622,0,0,1-.57,1.235A8.461,8.461,0,0,1,11.531,20.052Z" transform="translate(0 -0.001)" fill="#969696"/>
</svg>
